<?xml version="1.0" encoding="UTF-8" standalone="no"?>
<!-- Created with Inkscape (http://www.inkscape.org/) -->

<svg
   xmlns:dc="http://purl.org/dc/elements/1.1/"
   xmlns:cc="http://creativecommons.org/ns#"
   xmlns:rdf="http://www.w3.org/1999/02/22-rdf-syntax-ns#"
   xmlns:svg="http://www.w3.org/2000/svg"
   xmlns="http://www.w3.org/2000/svg"
   xmlns:sodipodi="http://sodipodi.sourceforge.net/DTD/sodipodi-0.dtd"
   xmlns:inkscape="http://www.inkscape.org/namespaces/inkscape"
   version="1.0"
   width="250"
   height="75.33844"
   id="svg1936"
   inkscape:version="0.91 r13725"
   sodipodi:docname="amazon.svg">
  <metadata
     id="metadata3355">
    <rdf:RDF>
      <cc:Work
         rdf:about="">
        <dc:format>image/svg+xml</dc:format>
        <dc:type
           rdf:resource="http://purl.org/dc/dcmitype/StillImage" />
        <dc:title></dc:title>
      </cc:Work>
    </rdf:RDF>
  </metadata>
  <sodipodi:namedview
     pagecolor="#ffffff"
     bordercolor="#666666"
     borderopacity="1"
     objecttolerance="10"
     gridtolerance="10"
     guidetolerance="10"
     inkscape:pageopacity="0"
     inkscape:pageshadow="2"
     inkscape:window-width="1440"
     inkscape:window-height="799"
     id="namedview3353"
     showgrid="false"
     fit-margin-top="0"
     fit-margin-left="0"
     fit-margin-right="0"
     fit-margin-bottom="0"
     inkscape:zoom="2.482296"
     inkscape:cx="80.505509"
     inkscape:cy="26.293157"
     inkscape:window-x="0"
     inkscape:window-y="1"
     inkscape:window-maximized="1"
     inkscape:current-layer="g1967" />
  <defs
     id="defs1938" />
  <g
     transform="translate(144.53434,-756.03797)"
     id="layer1">
    <g
       transform="translate(7.081691,7.081144)"
       id="g1967">
      <g
         id="g5273">
        <path
           inkscape:connector-curvature="0"
           style="fill:#000000;fill-opacity:1;fill-rule:evenodd;stroke:none"
           id="path8"
           d="m 3.4790765,807.87381 c -14.5279215,10.70823 -35.5852565,16.42146 -53.7152295,16.42146 -25.421147,0 -48.306703,-9.40234 -65.620507,-25.04027 -1.36029,-1.22971 -0.14148,-2.90558 1.49088,-1.94794 18.684971,10.87146 41.788187,17.41175 65.65316,17.41175 16.094971,0 33.80054,-3.33 50.0805216,-10.24028 2.4594102,-1.04471 4.516171,1.61058 2.1111749,3.39528" />
        <path
           inkscape:connector-curvature="0"
           style="fill:#000000;fill-opacity:1;fill-rule:evenodd;stroke:none"
           id="path10"
           d="m 9.5187801,800.96353 c -1.8500047,-2.37235 -12.2752838,-1.12088 -16.9546888,-0.56588 -1.4255922,0.17412 -1.643232,-1.06647 -0.3591231,-1.95883 8.3032288,-5.84381 21.9279228,-4.15705 23.5167448,-2.19823 1.588814,1.96971 -0.413528,15.62705 -8.2161716,22.14556 -1.1970562,1.00118 -2.3397025,0.46795 -1.8064618,-0.8597 1.7520518,-4.3747 5.6805804,-14.17969 3.8197005,-16.56292" />
        <path
           inkscape:connector-curvature="0"
           style="fill:#000000;fill-rule:evenodd;stroke:none;fill-opacity:1"
           id="path12"
           d="m -7.1094366,757.18387 0,-5.68058 c 0,-0.8597 0.6529402,-1.43646 1.4364675,-1.43646 l 25.4320231,0 c 0.816182,0 1.469122,0.58764 1.469122,1.43646 l 0,4.86441 c -0.01088,0.81617 -0.69647,1.88264 -1.915298,3.5694 L 6.1343675,778.75267 c 4.8970575,-0.1197 10.0661685,0.60941 14.5061625,3.11235 1.001175,0.56588 1.273233,1.39294 1.34941,2.20912 l 0,6.06147 c 0,0.82705 -0.914118,1.79557 -1.871763,1.29499 -7.824407,-4.10264 -18.2170388,-4.54882 -26.8684988,0.0435 -0.8814677,0.47883 -1.8064659,-0.47882 -1.8064659,-1.30588 l 0,-5.75676 c 0,-0.92499 0.010875,-2.50294 0.9358735,-3.90676 l 15.2679264,-21.89527 -13.2873345,0 c -0.8161741,0 -1.4691143,-0.57676 -1.4691143,-1.42559" />
        <path
           inkscape:connector-curvature="0"
           style="fill:#000000;fill-rule:evenodd;stroke:none;fill-opacity:1"
           id="path14"
           d="m -99.881392,792.62765 -7.737338,0 c -0.74,-0.0544 -1.32765,-0.6094 -1.38206,-1.31676 l 0,-39.70965 c 0,-0.79441 0.66382,-1.42559 1.49088,-1.42559 l 7.21499,0 c 0.750888,0.0326 1.34941,0.60941 1.403828,1.32764 l 0,5.19089 0.141471,0 c 1.882643,-5.01677 5.419398,-7.35647 10.185868,-7.35647 4.842639,0 7.867929,2.3397 10.044397,7.35647 1.871764,-5.01677 6.126756,-7.35647 10.686462,-7.35647 3.242937,0 6.79058,1.33853 8.956165,4.34205 2.448526,3.34088 1.947937,8.1944 1.947937,12.4494 l -0.01088,25.06203 c 0,0.79441 -0.663824,1.43646 -1.490882,1.43646 l -7.726465,0 c -0.77264,-0.0544 -1.392933,-0.67469 -1.392933,-1.43646 l 0,-21.04645 c 0,-1.67587 0.152346,-5.85469 -0.217648,-7.44352 -0.576763,-2.66617 -2.307056,-3.41706 -4.548822,-3.41706 -1.871764,0 -3.830585,1.25147 -4.624996,3.25383 -0.794411,2.00235 -0.718233,5.3541 -0.718233,7.60675 l 0,21.04645 c 0,0.79441 -0.663824,1.43646 -1.490882,1.43646 l -7.726457,0 c -0.783528,-0.0544 -1.392941,-0.67469 -1.392941,-1.43646 l -0.01088,-21.04645 c 0,-4.42911 0.729109,-10.94763 -4.766466,-10.94763 -5.560881,0 -5.343233,6.35528 -5.343233,10.94763 l 0,21.04645 c 0,0.79441 -0.663824,1.43646 -1.490882,1.43646" />
        <path
           inkscape:connector-curvature="0"
           style="fill:#000000;fill-rule:evenodd;stroke:none;fill-opacity:1"
           id="path16"
           d="m 43.123444,749.33771 c 11.480869,0 17.694682,9.8594 17.694682,22.39586 0,12.11204 -6.866761,21.72114 -17.694682,21.72114 -11.274108,0 -17.411752,-9.8594 -17.411752,-22.14556 0,-12.36234 6.213821,-21.97144 17.411752,-21.97144 m 0.06529,8.10735 c -5.70234,0 -6.061463,7.76998 -6.061463,12.61263 0,4.85352 -0.07618,15.21351 5.996173,15.21351 5.996169,0 6.279111,-8.35764 6.279111,-13.45058 0,-3.35175 -0.141471,-7.35646 -1.153534,-10.5341 -0.870588,-2.76411 -2.600873,-3.84146 -5.060287,-3.84146" />
        <path
           inkscape:connector-curvature="0"
           style="fill:#000000;fill-rule:evenodd;stroke:none;fill-opacity:1"
           id="path18"
           d="m 75.70517,792.62765 -7.704694,0 c -0.772652,-0.0544 -1.392945,-0.67469 -1.392945,-1.43646 l -0.01088,-39.72054 c 0.06529,-0.72912 0.707354,-1.295 1.490882,-1.295 l 7.171466,0 c 0.674699,0.0326 1.229699,0.48971 1.382057,1.11 l 0,6.07234 0.141463,0 c 2.165593,-5.43028 5.201758,-8.02028 10.544987,-8.02028 3.471465,0 6.855877,1.25147 9.032346,4.6794 2.024114,3.17765 2.024114,8.52088 2.024114,12.36234 l 0,24.99674 c -0.08706,0.69646 -0.729117,1.25146 -1.490873,1.25146 l -7.759113,0 c -0.707358,-0.0544 -1.295005,-0.57675 -1.371174,-1.25146 l 0,-21.5688 c 0,-4.34205 0.500586,-10.69734 -4.842647,-10.69734 -1.882639,0 -3.612936,1.26236 -4.472641,3.17764 -1.088228,2.42677 -1.229699,4.84265 -1.229699,7.5197 l 0,21.3838 c -0.01087,0.79441 -0.685587,1.43646 -1.512644,1.43646" />
        <path
           inkscape:connector-curvature="0"
           style="fill:#000000;fill-rule:evenodd;stroke:none;fill-opacity:1"
           id="path28"
           d="m -27.38324,773.65974 c 0,3.01441 0.07618,5.52823 -1.447351,8.20528 -1.229703,2.17648 -3.188524,3.515 -5.354109,3.515 -2.970879,0 -4.712051,-2.26353 -4.712051,-5.60441 0,-6.59469 5.909108,-7.79175 11.513511,-7.79175 l 0,1.67588 m 7.802639,18.85909 c -0.511465,0.45706 -1.25147,0.48971 -1.828233,0.18501 -2.568235,-2.13294 -3.036173,-3.12323 -4.439994,-5.15823 -4.244113,4.33117 -7.258527,5.62616 -12.754106,5.62616 -6.518522,0 -11.578809,-4.01558 -11.578809,-12.05762 0,-6.27912 3.395296,-10.55588 8.248818,-12.64528 4.200583,-1.85001 10.066156,-2.17647 14.549685,-2.68794 l 0,-1.00118 c 0,-1.83912 0.141471,-4.01559 -0.946761,-5.6044 -0.935882,-1.42559 -2.742357,-2.01324 -4.342054,-2.01324 -2.94912,0 -5.571756,1.51264 -6.213821,4.64676 -0.130587,0.69647 -0.642052,1.38206 -1.349411,1.41471 l -7.497929,-0.8053 c -0.631177,-0.14146 -1.338528,-0.65294 -1.153526,-1.62146 1.719409,-9.09764 9.94646,-11.83999 17.302915,-11.83999 3.765295,0 8.684111,1.00117 11.654991,3.85234 3.765286,3.515 3.406171,8.20529 3.406171,13.30911 l 0,12.05763 c 0,3.62382 1.501761,5.21264 2.916466,7.17147 0.48971,0.69646 0.598534,1.5344 -0.03267,2.05675 -1.577938,1.31677 -4.385584,3.7653 -5.930875,5.13647 l -0.01088,-0.0218" />
        <path
           inkscape:connector-curvature="0"
           style="fill:#000000;fill-rule:evenodd;stroke:none;fill-opacity:1"
           id="path30"
           d="m -128.81753,773.65974 c 0,3.01441 0.0762,5.52823 -1.44735,8.20528 -1.22971,2.17648 -3.17765,3.515 -5.35411,3.515 -2.97088,0 -4.70117,-2.26353 -4.70117,-5.60441 0,-6.59469 5.90911,-7.79175 11.50263,-7.79175 l 0,1.67588 m 7.80264,18.85909 c -0.51147,0.45706 -1.25148,0.48971 -1.82824,0.18501 -2.56822,-2.13294 -3.02529,-3.12323 -4.43999,-5.15823 -4.24412,4.33117 -7.24763,5.62616 -12.75411,5.62616 -6.50764,0 -11.5788,-4.01558 -11.5788,-12.05762 0,-6.27912 3.40617,-10.55588 8.24881,-12.64528 4.20058,-1.85001 10.06616,-2.17647 14.54969,-2.68794 l 0,-1.00118 c 0,-1.83912 0.14147,-4.01559 -0.93588,-5.6044 -0.94677,-1.42559 -2.75323,-2.01324 -4.34206,-2.01324 -2.9491,0 -5.58264,1.51264 -6.22469,4.64676 -0.13059,0.69647 -0.64206,1.38206 -1.33853,1.41471 l -7.50881,-0.8053 c -0.63118,-0.14146 -1.32765,-0.65294 -1.15353,-1.62146 1.73029,-9.09764 9.94645,-11.83999 17.30292,-11.83999 3.76528,0 8.6841,1.00117 11.65498,3.85234 3.76529,3.515 3.40617,8.20529 3.40617,13.30911 l 0,12.05763 c 0,3.62382 1.50177,5.21264 2.91647,7.17147 0.50059,0.69646 0.60941,1.5344 -0.0218,2.05675 -1.57794,1.31677 -4.38558,3.7653 -5.93088,5.13647 l -0.0218,-0.0218" />
      </g>
    </g>
  </g>
</svg>
