<?xml version="1.0" encoding="UTF-8" standalone="no"?>
<!-- Generator: Adobe Illustrator 14.0.0, SVG Export Plug-In . SVG Version: 6.00 Build 43363)  -->

<svg
   xmlns:dc="http://purl.org/dc/elements/1.1/"
   xmlns:cc="http://creativecommons.org/ns#"
   xmlns:rdf="http://www.w3.org/1999/02/22-rdf-syntax-ns#"
   xmlns:svg="http://www.w3.org/2000/svg"
   xmlns="http://www.w3.org/2000/svg"
   xmlns:sodipodi="http://sodipodi.sourceforge.net/DTD/sodipodi-0.dtd"
   xmlns:inkscape="http://www.inkscape.org/namespaces/inkscape"
   version="1.1"
   id="Layer_1"
   x="0px"
   y="0px"
   width="249.2"
   height="78.923241"
   viewBox="0 0 249.2 78.92324"
   enable-background="new 0 0 612 792"
   xml:space="preserve"
   inkscape:version="0.91 r13725"
   sodipodi:docname="bed-bath-beyond.svg"><metadata
     id="metadata3510"><rdf:RDF><cc:Work
         rdf:about=""><dc:format>image/svg+xml</dc:format><dc:type
           rdf:resource="http://purl.org/dc/dcmitype/StillImage" /><dc:title></dc:title></cc:Work></rdf:RDF></metadata><defs
     id="defs3508" /><sodipodi:namedview
     pagecolor="#ffffff"
     bordercolor="#666666"
     borderopacity="1"
     objecttolerance="10"
     gridtolerance="10"
     guidetolerance="10"
     inkscape:pageopacity="0"
     inkscape:pageshadow="2"
     inkscape:window-width="1283"
     inkscape:window-height="835"
     id="namedview3506"
     showgrid="false"
     inkscape:zoom="3.0151515"
     inkscape:cx="121.61906"
     inkscape:cy="19.09973"
     inkscape:window-x="0"
     inkscape:window-y="0"
     inkscape:window-maximized="0"
     inkscape:current-layer="g3444"
     fit-margin-top="0"
     fit-margin-left="-0.8"
     fit-margin-right="0"
     fit-margin-bottom="0" /><g
     id="g3444"
     transform="translate(-218.304,-345.19619)"><g
       id="g4535"
       transform="matrix(1.4224909,0,0,1.4224909,-91.893458,-179.18659)"><path
         id="path3448"
         transform="translate(217.504,368.637)"
         d="m 173.77344,34.451172 c -1.082,0 -1.97461,0.873078 -1.97461,1.955078 0,1.1 0.89261,1.972656 1.97461,1.972656 1.082,0 1.97461,-0.872656 1.97461,-1.972656 0,-1.082 -0.89261,-1.955078 -1.97461,-1.955078 z m 0,0.226562 c 0.968,0 1.74609,0.779516 1.74609,1.728516 0,0.967 -0.77809,1.746094 -1.74609,1.746094 -0.969,0 -1.7461,-0.778516 -1.7461,-1.728516 0,-0.967 0.7771,-1.746094 1.7461,-1.746094 z m -0.74219,0.587891 0,2.166016 0.002,0 0.28516,0 0,-0.933594 0.7207,0 c 0.437,0 0.32333,0.398016 0.36133,0.666015 l 0.0371,0.267579 0.3418,0 c -0.114,-0.191 -0.0747,-0.228672 -0.0937,-0.513672 -0.038,-0.379 -0.0576,-0.419735 -0.26563,-0.552735 0.208,-0.17 0.2832,-0.265828 0.2832,-0.548828 -0.038,-0.494 -0.35917,-0.550781 -0.70117,-0.550781 l -0.9707,0 z m 0.28711,0.248047 0.70312,0 c 0.17,0 0.43644,0.03697 0.39844,0.417969 -0.038,0.285 -0.20944,0.322265 -0.39844,0.322265 l -0.70312,0 0,-0.740234 z"
         style="clip-rule:evenodd;fill-rule:evenodd"
         inkscape:connector-curvature="0" /><path
         id="path3454"
         transform="translate(217.504,368.637)"
         d="m 128.90234,34.222656 0,21.050782 21.5625,0 c 31.965,0 31.965,-21.050782 0,-21.050782 l -21.5625,0 z m 16.94922,6.548828 2.25977,0 c 12.262,0 12.262,8.123047 0,8.123047 l -2.25977,0 0,-8.123047 z"
         style="clip-rule:evenodd;fill-rule:evenodd"
         inkscape:connector-curvature="0" /><path
         id="path3456"
         transform="translate(217.504,368.637)"
         d="m 77.746094,33.730469 c -9.187,0 -16.666016,4.877 -16.666016,10.875 10e-4,5.981 7.479016,10.876953 16.666016,10.876953 9.149,0 16.648437,-4.895953 16.648437,-10.876953 0,-5.998 -7.499437,-10.875 -16.648437,-10.875 z m 0,6.71875 c 3.132,0 5.677734,1.85925 5.677734,4.15625 0,2.277 -2.544734,4.158203 -5.677734,4.158203 -3.132,0 -5.69336,-1.881203 -5.69336,-4.158203 0,-2.297 2.56236,-4.15625 5.69336,-4.15625 z"
         style="clip-rule:evenodd;fill-rule:evenodd"
         inkscape:connector-curvature="0" /><path
         id="path3458"
         transform="translate(217.504,368.637)"
         d="m 0,34.222656 0,21.050782 11.103516,0 c 4.802,0 8.65625,-1.822422 8.65625,-5.732422 0,-3.91 -4.138672,-5.011719 -4.138672,-5.011719 3.321,-1.119 2.980468,-4.953125 2.980468,-4.953125 0,-5.581 -8.408203,-5.353516 -8.408203,-5.353516 L 0,34.222656 Z m 7.6875,5.048828 1.9921875,0 c 2.1260005,0 2.1260005,3.189454 0,3.189454 l -1.9921875,0 0,-3.189454 z m 0,7.574219 2.2773438,0 c 2.9800002,0 2.9800002,3.472656 0,3.472656 l -2.2773438,0 0,-3.472656 z"
         style="clip-rule:evenodd;fill-rule:evenodd"
         inkscape:connector-curvature="0" /><path
         id="path3460"
         transform="translate(217.504,368.637)"
         d="m 162.85742,0.30273438 c -2.999,0 -5.69336,2.46850002 -5.69336,5.56250002 0,3.075 3.04688,6.5566406 3.04688,6.5566406 -0.651,0.413 -1.37283,0.877016 -2.17383,1.416016 -3.304,2.202 -6.69922,4.592156 -6.69922,9.660156 0,5.068 4.9545,7.308594 7.6875,7.308594 2.715,0 5.61795,-1.63311 9.37695,-4.53711 0.445,-0.346 0.87416,-0.703453 1.28516,-1.064453 l 3.6875,4.97461 2.06836,0 c 0,0 -2.0445,-2.728079 -4.5625,-6.080079 2.404,-2.337 3.9375,-4.509765 3.9375,-4.509765 l -1.19727,-0.685547 c -1.32,1.462 -2.57086,2.73775 -3.75586,3.84375 -2.814,-3.747 -5.93262,-7.891594 -7.39062,-9.808594 2.986,-2.12 5.60351,-4.2735155 5.60351,-6.9785155 0,-2.866 -2.2017,-5.65820312 -5.2207,-5.65820312 z m -0.20703,1.85937502 c 2.999,0 3.58789,2.904875 3.58789,3.796875 0,0.911 -0.2287,1.823625 -1.5957,3.265625 -0.813,0.8579996 -1.80811,1.5325776 -3.16211,2.3925786 -1.765,-2.4360005 -2.53125,-4.211688 -2.53125,-5.429688 0,-1.348 0.68217,-4.0253906 3.70117,-4.0253906 z m -1.41406,11.6445316 7.43164,10.023437 c -4.241,3.692 -7.5352,5.096656 -9.9082,5.097656 -3.226,0 -5.69532,-2.808875 -5.69532,-5.921875 0,-3.114 1.97491,-4.746656 3.37891,-5.847656 1.324,-1.006 2.10697,-1.485562 4.79297,-3.351562 z"
         style="clip-rule:evenodd;fill-rule:evenodd"
         inkscape:connector-curvature="0" /><path
         id="polygon3462"
         transform="translate(217.504,368.637)"
         d="m 96.140625,0 -12.128906,30.179688 1.917969,0 3.888671,-9.716797 12.699221,0 3.92969,9.716797 1.8789,0 L 96.140625,0 Z m 0,4.6308594 5.695315,14.1406246 -11.351565,0 5.65625,-14.1406246 z"
         style="clip-rule:evenodd;fill-rule:evenodd"
         inkscape:connector-curvature="0" /><path
         id="path3464"
         transform="translate(217.504,368.637)"
         d="m 36.140625,0.98632812 0,29.19335988 6.1875,0 c 19.532,0 19.1155,-29.19335988 0.4375,-29.19335988 l -6.625,0 z m 1.955078,1.82226568 4.404297,0 c 16.722,0 16.476,25.4921872 0,25.4921872 l -4.404297,0 0,-25.4921872 z"
         style="clip-rule:evenodd;fill-rule:evenodd"
         inkscape:connector-curvature="0" /><path
         id="path3466"
         transform="translate(217.504,368.637)"
         d="m 68.654297,0.98632812 0,29.19335988 7.347656,0 c 4.385,0 9.299781,-1.97511 9.300781,-8.16211 0,-6.131 -5.789062,-7.30664 -5.789062,-7.30664 3.644,-1.975001 3.226562,-6.6250005 3.226562,-6.6250005 -0.304,-7.099 -7.441406,-7.09960938 -7.441406,-7.09960938 l -6.644531,0 z m 1.632812,1.78515628 4.898438,0 c 7.707,0 7.726,11.4843746 0,11.4843746 l -4.898438,0 0,-11.4843746 z m 0.03711,13.3632816 0.002,0 6.509766,0 c 9.149,0 8.902906,12.222656 -0.246094,12.222656 l -6.265625,0 0,-12.222656 z"
         style="clip-rule:evenodd;fill-rule:evenodd"
         inkscape:connector-curvature="0" /><path
         id="path3468"
         transform="translate(217.504,368.637)"
         d="m 0.24609375,0.98632812 0,29.19335988 7.34765625,0 c 4.384,0 9.338891,-1.97511 9.337891,-8.16211 0,-6.131 -5.828125,-7.30664 -5.828125,-7.30664 3.664,-1.975001 3.226562,-6.6250005 3.226562,-6.6250005 -0.285,-7.099 -7.4218749,-7.09960938 -7.4218749,-7.09960938 l -6.66210935,0 z m 1.63281245,1.78515628 4.8964844,0 c 7.7070004,0 7.7260004,11.4843746 0,11.4843746 l -4.8964844,0 0,-11.4843746 z m 0.056641,13.3632816 6.4921875,0 c 9.1679993,0 8.9219063,12.222656 -0.2460938,12.222656 l -6.2460937,0 0,-12.222656 z"
         style="clip-rule:evenodd;fill-rule:evenodd"
         inkscape:connector-curvature="0" /><path
         id="path3474"
         d="m 312.259,402.859 11.332,0 10.041,11.18 c 0.551,0.59 1.12,0.438 0.74,-0.455 -0.38,-0.91 -0.664,-2.809 -0.664,-2.809 l 0,-7.916 11.123,0 0,21.051 -11.161,0 -10.137,-10.744 c -0.55,-0.607 -1.119,-0.455 -0.74,0.457 0.361,0.891 0.551,2.809 0.551,2.809 l 0,7.479 -11.085,0 0,-21.052 0,0 z"
         inkscape:connector-curvature="0"
         style="clip-rule:evenodd;fill-rule:evenodd" /><polygon
         id="polygon3478"
         points="255.429,403.676 255.429,408.572 247.703,408.572 247.703,410.643 254.802,410.643 254.802,416.051 247.703,416.051 247.703,418.197 255.808,418.197 255.808,423.91 238.592,423.91 238.592,402.859 238.592,402.859 266.362,402.859 269.646,408.82 272.778,402.859 284.337,402.859 274.543,414.951 274.543,423.91 264.616,423.91 264.616,414.646 "
         style="clip-rule:evenodd;fill-rule:evenodd" /><polygon
         id="polygon3488"
         points="338.737,398.816 338.737,369.624 340.427,369.624 340.427,381.923 340.427,381.923 358.231,381.923 358.231,369.624 359.921,369.624 359.921,398.816 358.231,398.816 358.231,383.746 340.427,383.746 340.427,398.816 "
         style="clip-rule:evenodd;fill-rule:evenodd" /><polygon
         id="polygon3490"
         points="320.079,369.624 336.896,369.624 336.896,371.275 329.323,371.275 329.323,398.816 327.634,398.816 327.634,371.275 320.079,371.275 320.079,369.624 "
         style="clip-rule:evenodd;fill-rule:evenodd" /><polygon
         id="polygon3496"
         points="250.607,397.014 250.607,398.816 236.694,398.816 236.694,369.624 236.694,369.624 250.607,369.624 250.607,371.446 238.479,371.446 238.479,382.056 250.266,382.056 250.266,383.746 238.479,383.746 238.479,397.014 "
         style="clip-rule:evenodd;fill-rule:evenodd" /></g></g></svg>