<?xml version="1.0" encoding="UTF-8" standalone="no"?>
<!-- Created with Inkscape (http://www.inkscape.org/) -->

<svg
   xmlns:dc="http://purl.org/dc/elements/1.1/"
   xmlns:cc="http://creativecommons.org/ns#"
   xmlns:rdf="http://www.w3.org/1999/02/22-rdf-syntax-ns#"
   xmlns:svg="http://www.w3.org/2000/svg"
   xmlns="http://www.w3.org/2000/svg"
   xmlns:sodipodi="http://sodipodi.sourceforge.net/DTD/sodipodi-0.dtd"
   xmlns:inkscape="http://www.inkscape.org/namespaces/inkscape"
   version="1.0"
   width="249.2"
   height="35.664383"
   id="svg2"
   xml:space="preserve"
   inkscape:version="0.91 r13725"
   sodipodi:docname="crate-and-barrel.svg"><metadata
     id="metadata5395"><rdf:RDF><cc:Work
         rdf:about=""><dc:format>image/svg+xml</dc:format><dc:type
           rdf:resource="http://purl.org/dc/dcmitype/StillImage" /><dc:title></dc:title></cc:Work></rdf:RDF></metadata><sodipodi:namedview
     pagecolor="#ffffff"
     bordercolor="#666666"
     borderopacity="1"
     objecttolerance="10"
     gridtolerance="10"
     guidetolerance="10"
     inkscape:pageopacity="0"
     inkscape:pageshadow="2"
     inkscape:window-width="1443"
     inkscape:window-height="814"
     id="namedview5393"
     showgrid="false"
     fit-margin-top="0"
     fit-margin-left="-0.8"
     fit-margin-right="0"
     fit-margin-bottom="0"
     inkscape:zoom="2.3042821"
     inkscape:cx="61.149907"
     inkscape:cy="-24.642153"
     inkscape:window-x="0"
     inkscape:window-y="0"
     inkscape:window-maximized="0"
     inkscape:current-layer="svg2" /><defs
     id="defs5"><clipPath
       id="clipPath17"><path
         d="M 0,792 612,792 612,0 0,0 0,792 Z"
         id="path19"
         inkscape:connector-curvature="0" /></clipPath><clipPath
       id="clipPath49"><path
         d="M 0,792 612,792 612,0 0,0 0,792 Z"
         id="path51"
         inkscape:connector-curvature="0" /></clipPath><clipPath
       id="clipPath1889"><path
         d="m 352.698,682.406 14.073,0 0,-8.104 -14.073,0 0,8.104 z"
         id="path1891"
         inkscape:connector-curvature="0" /></clipPath><clipPath
       id="clipPath1983"><path
         d="M 0,792 612,792 612,0 0,0 0,792 Z"
         id="path1985"
         inkscape:connector-curvature="0" /></clipPath></defs><g
     transform="matrix(2.2122523,0,0,-2.2122523,-1013.9607,1648.7762)"
     id="g11"><g
       id="g5385"><path
         d="m 503.908,736.492 -4.836,0 c 0,1.403 1.191,2.325 2.457,2.303 1.322,0 2.379,-0.927 2.379,-2.303 m -30.128,1.877 c -0.53,3.989 -3.938,6.924 -7.769,6.924 -4.468,0 -8.034,-3.461 -8.034,-8.087 0,-4.916 4.438,-7.876 7.955,-7.876 3.144,0 7.056,2.169 7.689,6.265 l -2.933,0 c -0.342,-1.348 -1.93,-3.305 -4.677,-3.305 -2.936,0 -5.023,2.088 -5.128,4.861 -0.08,2.858 2.14,5.207 5.128,5.207 2.376,0 4.335,-1.796 4.917,-3.989 l 2.852,0 m 23.045,-8.88 0,2.142 c -0.315,0.105 -2.191,-0.4 -2.191,1.134 l 0,5.974 1.9,0 0,2.061 -1.9,0 0,3.436 -2.884,0 0,-3.356 -1.426,0 0,-2.141 1.426,0 0,-6.659 c 0,-0.899 0.397,-2.591 2.723,-2.591 l 2.352,0 m -16.332,8.697 0,2.694 c 0,0 -0.662,0.132 -1.294,0 -0.848,-0.212 -1.692,-0.897 -2.115,-1.428 l 0,1.11 -2.801,0 0,-11.018 2.881,0 0,5.046 c -0.159,3.436 1.821,4.017 3.329,3.596 m 26.587,-3.808 c 0.108,3.251 -1.639,6.634 -5.471,6.662 -3.435,0.077 -5.523,-2.778 -5.523,-5.554 0,-3.592 2.459,-6.156 5.814,-6.156 2.667,0 4.625,1.851 5.074,3.779 l -2.962,0 c -0.58,-0.872 -1.213,-1.268 -2.244,-1.268 -1.455,0 -2.828,1.111 -2.828,2.537 l 8.14,0 m -16.465,-4.834 c -0.185,0.342 -0.368,1.215 -0.424,1.849 l 0,6.05 c -0.051,2.485 -2.298,3.437 -4.572,3.437 -3.673,0 -4.834,-1.638 -4.89,-3.594 l 2.513,0 c 0.237,1.373 1.215,1.612 2.085,1.612 1.773,0 2.143,-1.188 2.064,-1.505 -0.08,-0.981 -1.481,-0.822 -3.25,-1.113 -3.12,-0.449 -4.018,-2.193 -4.018,-3.566 0,-2.299 2.194,-3.463 4.122,-3.463 1.744,0 2.855,0.792 3.357,1.189 0.131,-0.448 0.211,-0.951 0.211,-0.896 l 2.802,0 m -3.408,5.522 c 0.184,-1.587 -0.055,-2.246 -0.451,-2.776 -0.66,-0.791 -2.221,-0.819 -2.221,-0.819 -0.236,-0.078 -1.77,0.081 -1.847,1.294 -0.028,1.376 1.716,1.613 4.519,2.301"
         id="path21"
         style="fill:#231f20;fill-opacity:1;fill-rule:nonzero;stroke:none"
         inkscape:connector-curvature="0" /><path
         d="m 514.561,741.276 c 0,-0.925 -0.954,-1.479 -1.481,-1.902 -0.424,0.554 -1.138,1.135 -1.217,1.928 -0.028,0.635 0.557,1.295 1.346,1.295 0.82,0 1.352,-0.66 1.352,-1.321 m 5.996,-11.732 -2.561,3.354 c 1.399,1.455 1.742,4.468 1.742,4.468 l -2.455,0 c 0.078,-0.238 -0.399,-1.771 -0.877,-2.407 l -1.845,2.536 c 0.552,0.531 2.482,1.349 2.482,3.755 0,2.142 -1.719,3.62 -3.939,3.62 -2.535,0 -3.725,-1.533 -3.752,-3.462 -0.026,-1.453 0.978,-2.64 1.533,-3.33 -0.846,-0.29 -3.62,-1.85 -3.62,-4.782 0,-2.353 2.114,-4.151 4.65,-4.124 1.403,0 3.462,0.871 4.334,1.771 l 1.112,-1.399 3.196,0 m -5.815,3.381 c -0.607,-0.555 -1.981,-1.27 -2.879,-1.27 -0.767,0.081 -1.772,0.662 -1.772,1.797 0,0 -0.156,1.11 2.222,2.671 l 2.429,-3.198 m 17.867,0.527 c 0,2.379 -1.506,3.622 -2.802,4.071 0.398,0.32 2.246,0.821 2.246,3.145 0,2.724 -2.375,3.806 -4.649,3.806 l -6.741,0 0,-14.93 7.772,0 c 1.61,0 4.174,1.242 4.174,3.908 m 38.375,10.944 -2.802,0 0,-14.852 2.802,0 0,14.852 z m -13.98,-6.262 0,2.691 c 0,0 -0.635,0.134 -1.322,0 -0.872,-0.208 -1.665,-0.897 -2.116,-1.424 l 0,1.108 -2.799,0 0,-10.965 2.854,0 0,5.018 c -0.16,3.412 1.823,3.993 3.383,3.572 m -6.9,0 0,2.691 c 0,0 -0.659,0.134 -1.293,0 -0.873,-0.208 -1.639,-0.897 -2.087,-1.424 l 0,1.108 -2.882,0 0,-10.965 2.933,0 0,5.018 c -0.159,3.412 1.823,3.993 3.329,3.572 m 17.576,-3.781 c 0.106,3.226 -1.664,6.606 -5.469,6.633 -3.411,0.079 -5.471,-2.776 -5.471,-5.522 0,-3.57 2.457,-6.134 5.786,-6.134 2.617,0 4.652,1.851 5.023,3.753 l -2.962,0 c -0.503,-0.871 -1.187,-1.242 -2.22,-1.242 -1.428,0 -2.801,1.084 -2.801,2.512 l 8.114,0 m -24.207,-4.809 c -0.266,0.42 -0.477,1.687 -0.477,2.192 0,0 0.053,3.542 0,5.682 -0.027,2.457 -2.299,3.407 -4.546,3.407 -3.542,0 -4.809,-1.637 -4.809,-3.565 l 2.538,0 c 0.208,1.347 1.188,1.584 2.034,1.584 1.742,0 2.089,-1.189 2.06,-1.478 -0.106,-0.979 -1.503,-0.82 -3.197,-1.111 -3.199,-0.45 -4.07,-2.193 -4.07,-3.567 0,-2.273 2.193,-3.437 4.15,-3.437 1.69,0 2.799,0.792 3.305,1.189 0.104,-0.448 0.209,-0.951 0.209,-0.896 l 2.803,0 m -14.483,10.861 c 0,-1.693 -1.666,-1.955 -2.352,-1.955 l -3.228,0 0,3.647 3.332,0 c 1.03,0 2.248,-0.505 2.248,-1.692 m 35.545,-3.939 -4.836,0 c 0,1.377 1.188,2.302 2.485,2.273 1.294,0 2.351,-0.925 2.351,-2.273 m -35.228,-2.615 c 0,-1.587 -1.824,-2.01 -2.327,-2.01 l -3.515,0 0,4.387 3.33,0 c 2.328,0 2.512,-1.48 2.512,-2.377 m 10.995,1.187 c 0.183,-1.586 0,-2.245 -0.425,-2.774 -0.608,-0.765 -2.141,-0.793 -2.141,-0.793 -0.239,-0.078 -1.824,0.081 -1.848,1.268 0,1.374 1.716,1.614 4.414,2.299"
         id="path23"
         style="fill:#231f20;fill-opacity:1;fill-rule:nonzero;stroke:none"
         inkscape:connector-curvature="0" /></g></g></svg>