<?xml version="1.0" ?><!DOCTYPE svg  PUBLIC '-//W3C//DTD SVG 1.1//EN'  'http://www.w3.org/Graphics/SVG/1.1/DTD/svg11.dtd'><svg enable-background="new 0 0 100 100" height="45px" id="Layer_1" version="1.1" viewBox="0 0 100 100" width="100px" xml:space="preserve" xmlns="http://www.w3.org/2000/svg" xmlns:xlink="http://www.w3.org/1999/xlink"><g><path clip-rule="evenodd" d="M50,4.86c-19.928,0-36.08,16.154-36.08,36.08c0,9.963,4.432,18.612,10.567,25.513   L50,95.14l25.513-28.686c6.135-6.901,10.567-15.55,10.567-25.514C86.08,21.014,69.926,4.86,50,4.86z M71.828,62.769   C65.998,68.6,58.246,71.811,50,71.811c-8.247,0-16-3.211-21.83-9.042c-5.83-5.832-9.042-13.583-9.042-21.828   C19.129,23.918,32.977,10.07,50,10.07c17.021,0,30.87,13.849,30.87,30.871C80.87,49.185,77.659,56.938,71.828,62.769z" fill-rule="evenodd"/><path clip-rule="evenodd" d="M67.941,30.232c0.766-0.241,1.532-0.482,2.298-0.724   c0.763-0.241,1.527-0.481,2.292-0.722l-9.11-5.26c0.173,0.781,0.346,1.563,0.52,2.345c0.153,0.695,0.309,1.391,0.464,2.087   c-1.957-0.899-4.087-1.377-6.239-1.377c-2.96,0-5.806,0.884-8.211,2.456c-2.228-1.269-4.779-1.972-7.42-1.972   c-2.617,0-5.204,0.695-7.482,2.01c-7.157,4.133-9.618,13.317-5.486,20.475c2.669,4.624,7.648,7.497,12.993,7.497   c2.617,0,5.204-0.696,7.482-2.011c0.238-0.139,0.461-0.296,0.689-0.445c2.26,1.289,4.821,1.972,7.411,1.972   c5.344,0,10.322-2.872,12.992-7.496C74.785,42.741,73.28,34.837,67.941,30.232z M52.922,36.066c1.6,2.771,2.023,5.999,1.196,9.09   c-0.6,2.239-1.812,4.205-3.483,5.73c-1.968-1.582-3.389-3.729-4.054-6.213c-0.828-3.091-0.403-6.319,1.197-9.091   c0.62-1.072,1.398-2.022,2.29-2.837C51.199,33.656,52.175,34.773,52.922,36.066z M32.171,48.046   c-3.303-5.721-1.336-13.063,4.384-16.365c1.821-1.052,3.889-1.607,5.978-1.607c1.709,0,3.369,0.373,4.886,1.05   c-0.859,0.88-1.619,1.867-2.247,2.955c-2.002,3.467-2.534,7.506-1.498,11.374c0.757,2.825,2.292,5.305,4.411,7.219   c-1.709,0.893-3.607,1.367-5.527,1.367C38.286,54.038,34.305,51.742,32.171,48.046z M68.527,47.563   c-2.134,3.696-6.113,5.992-10.387,5.992c-1.674,0-3.332-0.362-4.861-1.044c1.773-1.816,3.068-4.057,3.744-6.576   c1.037-3.867,0.505-7.906-1.497-11.373c-0.786-1.363-1.778-2.568-2.915-3.598c1.689-0.884,3.589-1.375,5.554-1.375   c2.089,0,4.156,0.556,5.978,1.608c2.771,1.6,4.754,4.183,5.582,7.274C70.553,41.563,70.128,44.791,68.527,47.563z" fill-rule="evenodd"/><path clip-rule="evenodd" d="M73.065,26.906c-0.025-0.552-0.053-1.104-0.08-1.657   c-1.129-0.651-2.257-1.303-3.384-1.954s-2.255-1.302-3.381-1.953c-0.492,0.253-0.982,0.507-1.475,0.76   c-0.314,0.162-0.63,0.324-0.943,0.486l9.313,5.377C73.1,27.613,73.083,27.259,73.065,26.906z" fill-rule="evenodd"/><polygon clip-rule="evenodd" fill-rule="evenodd" points="63.275,22.861 63.271,22.862 63.273,22.863  "/><path clip-rule="evenodd" d="M73.145,28.562l-0.022,0.039c0.02-0.006,0.038-0.012,0.058-0.018   C73.168,28.576,73.156,28.569,73.145,28.562z" fill-rule="evenodd"/></g></svg>
