<?xml version="1.0" encoding="UTF-8" standalone="no"?>
<!-- Created with Inkscape (http://www.inkscape.org/) -->

<svg
   xmlns:dc="http://purl.org/dc/elements/1.1/"
   xmlns:cc="http://creativecommons.org/ns#"
   xmlns:rdf="http://www.w3.org/1999/02/22-rdf-syntax-ns#"
   xmlns:svg="http://www.w3.org/2000/svg"
   xmlns="http://www.w3.org/2000/svg"
   xmlns:sodipodi="http://sodipodi.sourceforge.net/DTD/sodipodi-0.dtd"
   xmlns:inkscape="http://www.inkscape.org/namespaces/inkscape"
   id="svg3390"
   version="1.1"
   inkscape:version="0.91 r13725"
   width="250"
   height="17.511209"
   viewBox="0 0 249.99999 17.511209"
   sodipodi:docname="williams-sonoma.svg">
  <metadata
     id="metadata3396">
    <rdf:RDF>
      <cc:Work
         rdf:about="">
        <dc:format>image/svg+xml</dc:format>
        <dc:type
           rdf:resource="http://purl.org/dc/dcmitype/StillImage" />
        <dc:title></dc:title>
      </cc:Work>
    </rdf:RDF>
  </metadata>
  <defs
     id="defs3394" />
  <sodipodi:namedview
     pagecolor="#ffffff"
     bordercolor="#666666"
     borderopacity="1"
     objecttolerance="10"
     gridtolerance="10"
     guidetolerance="10"
     inkscape:pageopacity="0"
     inkscape:pageshadow="2"
     inkscape:window-width="1440"
     inkscape:window-height="799"
     id="namedview3392"
     showgrid="false"
     fit-margin-top="0"
     fit-margin-left="0"
     fit-margin-right="0"
     fit-margin-bottom="0"
     inkscape:zoom="2.2695847"
     inkscape:cx="194.9293"
     inkscape:cy="12.980036"
     inkscape:window-x="0"
     inkscape:window-y="1"
     inkscape:window-maximized="1"
     inkscape:current-layer="svg3390" />
  <path
     inkscape:connector-curvature="0"
     id="path3478"
     d="M 7.090714,17.44195 C 7.069024,17.40685 5.873004,13.90401 4.432895,9.65786 2.992786,5.41171 1.752395,1.85236 1.67647,1.74819 1.483384,1.48328 1.231751,1.37182 0.823864,1.37052 0.631155,1.36976 0.366951,1.34812 0.236742,1.32202 0.003828,1.27542 0,1.26742 0,0.82959 l 0,-0.44507 3.371212,0 3.371212,0 0,0.44397 0,0.44398 -0.852273,0.0402 C 4.922106,1.35827 4.644655,1.439 4.580799,1.69342 c -0.02985,0.11894 0.547529,1.99621 1.74252,5.66555 2.069231,6.35381 1.852826,5.708 1.897691,5.66314 0.01959,-0.0196 0.680512,-2.07179 1.468706,-4.56045 L 11.122797,3.93685 10.750422,2.8253 C 10.545616,2.21395 10.309122,1.6448 10.22488,1.56051 10.097179,1.43274 9.955539,1.40369 9.372978,1.38575 8.299919,1.35275 8.333333,1.37035 8.333333,0.83763 l 0,-0.45309 3.44697,0 3.446969,0 0,0.44507 c 0,0.43788 -0.0038,0.44584 -0.236742,0.49243 -0.130209,0.026 -0.436337,0.0473 -0.680285,0.0473 -0.243948,0 -0.580908,0.055 -0.748797,0.12214 -0.339569,0.13587 -0.425964,0.32057 -0.35487,0.75867 0.04526,0.27888 3.45428,10.70894 3.530153,10.80065 0.02396,0.029 0.716867,-2.22106 1.539784,-5.00006 1.088581,-3.67616 1.496215,-5.15803 1.496215,-5.4392 0,-0.76685 -0.436114,-1.08429 -1.674831,-1.21912 l -0.560021,-0.061 -0.02255,-0.47348 -0.02255,-0.47348 2.920283,0 2.920283,0 0,0.48212 0,0.48213 -0.343199,0.047 C 22.494695,1.46361 21.857094,1.79 21.592294,2.11125 21.466279,2.26412 21.264291,2.62847 21.14343,2.9209 21.022569,3.21333 19.957334,6.61579 18.776238,10.48191 l -2.14745,7.0293 -0.486646,-0.0217 -0.486645,-0.0217 -1.952319,-5.79545 c -1.073776,-3.1875 -1.964271,-5.82562 -1.978877,-5.86248 -0.01461,-0.0369 -0.84321,2.57938 -1.841339,5.81388 l -1.814779,5.88089 -0.469014,7.6e-4 c -0.257958,0 -0.486762,-0.0282 -0.508454,-0.0633 z m 116.381596,-0.0549 c -1.00285,-0.18146 -2.35894,-0.7849 -3.0684,-1.36538 -0.17368,-0.1421 -0.33271,-0.25837 -0.3534,-0.25837 -0.0207,0 -0.26581,0.35796 -0.54471,0.79546 l -0.50709,0.79545 -0.44633,0 -0.44632,0 0,-0.66288 c -6e-5,-0.36458 -0.0364,-1.81686 -0.0808,-3.22729 -0.0444,-1.41043 -0.0698,-2.57528 -0.0565,-2.58857 0.0133,-0.0133 0.24163,-0.033 0.50742,-0.0439 l 0.48327,-0.0197 0.14239,0.56072 c 0.38724,1.52484 1.09883,2.78201 2.11993,3.74526 0.94077,0.88748 1.9057,1.24952 3.48597,1.30796 1.56648,0.0579 2.57085,-0.21047 3.34822,-0.89474 0.62933,-0.55396 1.03178,-1.67593 0.92053,-2.56631 -0.13032,-1.04306 -0.59013,-1.69842 -1.53136,-2.18259 -0.73664,-0.37894 -1.15545,-0.51269 -3.27114,-1.04471 -2.78789,-0.70105 -3.93681,-1.16504 -4.70924,-1.90181 -0.51174,-0.48812 -0.85526,-1.09726 -1.02356,-1.81499 -0.17242,-0.73534 -0.11326,-2.08473 0.12043,-2.74659 0.2259,-0.63984 0.81431,-1.50555 1.34734,-1.98231 0.48755,-0.43609 1.42283,-0.92542 2.09355,-1.09531 1.08942,-0.27597 2.66301,-0.21191 3.83094,0.15592 0.57489,0.18106 1.66073,0.79321 1.92501,1.08524 0.0792,0.0875 0.16823,0.15903 0.19794,0.15903 0.0297,0 0.26756,-0.32386 0.52856,-0.71969 l 0.47457,-0.7197 0.40665,0 c 0.22367,0 0.40803,0.009 0.40969,0.0189 0.0123,0.0766 0.2815,6.00562 0.273,6.01215 -0.006,0.005 -0.23247,0.0281 -0.5033,0.0522 l -0.49242,0.0438 -0.18703,-0.62036 c -0.54014,-1.79157 -1.73963,-3.46114 -2.93799,-4.08938 -0.71894,-0.3769 -1.35511,-0.52711 -2.25377,-0.53213 -1.27951,-0.007 -2.11352,0.28893 -2.77044,0.98352 -0.55009,0.58164 -0.78438,1.13091 -0.78649,1.84383 -0.002,0.7103 0.24033,1.25672 0.78264,1.76399 0.66906,0.62582 1.08624,0.78011 4.25156,1.57234 1.1875,0.29721 2.40523,0.64237 2.70607,0.76703 2.029,0.84072 2.97758,2.27186 2.97463,4.48787 -0.001,1.01722 -0.13461,1.62863 -0.51111,2.34511 -0.68445,1.30251 -2.00651,2.25098 -3.59496,2.57908 -0.72326,0.14939 -2.43302,0.15035 -3.25383,0.002 z m 24.33072,-0.0255 c -1.13472,-0.25004 -2.09294,-0.67696 -2.94128,-1.31044 -0.46816,-0.3496 -0.37009,-0.41146 -1.01123,0.63788 l -0.40355,0.66049 -0.42527,0.003 -0.42527,0.003 -0.0469,-0.77652 c -0.0258,-0.42708 -0.0696,-1.89299 -0.0972,-3.25757 l -0.0503,-2.48106 0.38372,0 c 0.21103,0 0.43345,-0.0191 0.49425,-0.0424 0.0803,-0.0308 0.12529,0.0362 0.16436,0.24441 0.3779,2.0144 1.79914,4.13571 3.23265,4.825 0.83337,0.40071 1.34217,0.51436 2.48968,0.55606 1.62066,0.0589 2.57205,-0.21271 3.36201,-0.95982 0.55002,-0.52018 0.80981,-1.10373 0.8617,-1.93552 0.0524,-0.84053 -0.14946,-1.52832 -0.59834,-2.03827 -0.63303,-0.71917 -1.31504,-1.0134 -3.81127,-1.64426 -3.20067,-0.80888 -4.36349,-1.26972 -5.12469,-2.03091 -0.77606,-0.77606 -1.09079,-1.64317 -1.08782,-2.99699 0.003,-1.36173 0.41991,-2.37262 1.37058,-3.32329 1.07869,-1.07869 2.52481,-1.569 4.29714,-1.45695 1.42328,0.09 2.54128,0.47676 3.51833,1.2172 0.26236,0.19884 0.48547,0.3489 0.49579,0.33349 0.0103,-0.0154 0.22178,-0.34283 0.46994,-0.72759 l 0.45118,-0.69957 0.4356,-0.001 0.43561,-0.001 -7.6e-4,0.32197 c 0,0.17709 0.0539,1.52631 0.12041,2.99828 0.0665,1.47197 0.10929,2.68714 0.0951,2.70038 -0.0142,0.0132 -0.24338,0.0362 -0.50941,0.051 l -0.48369,0.0269 -0.144,-0.5303 c -0.34747,-1.2796 -1.44388,-3.03801 -2.33198,-3.74002 -0.80669,-0.63764 -1.75502,-0.9443 -2.92027,-0.9443 -1.23814,0 -2.05517,0.28273 -2.68321,0.92852 -0.54619,0.5616 -0.78474,1.06782 -0.82251,1.74532 -0.0681,1.22217 0.61641,2.1501 1.9533,2.64777 0.22951,0.0854 1.54201,0.44616 2.91667,0.80162 2.12365,0.54913 2.61729,0.70386 3.28363,1.02926 1.30791,0.6387 2.06049,1.53571 2.41019,2.87273 0.17881,0.68369 0.17709,2.14259 -0.003,2.79763 -0.45612,1.65631 -1.82629,2.95655 -3.64568,3.45964 -0.71819,0.19859 -2.84544,0.22054 -3.67425,0.0379 z m 15.5303,-0.004 c -1.78246,-0.38135 -3.50574,-1.51303 -4.73449,-3.10914 -1.44534,-1.87746 -2.05091,-4.3756 -1.67123,-6.89426 0.49548,-3.28671 2.97267,-6.25375 5.87542,-7.03722 1.26342,-0.341 2.74697,-0.38832 3.98831,-0.12719 2.37432,0.49945 4.33916,2.0669 5.54454,4.42313 0.74557,1.45741 0.96363,2.53146 0.90015,4.43368 -0.0458,1.37125 -0.18284,2.06185 -0.61788,3.11277 -1.14281,2.76077 -3.30318,4.66161 -5.91361,5.20321 -0.90973,0.18875 -2.47654,0.18644 -3.37121,-0.005 z m 2.76515,-0.95038 c 2.69416,-0.56565 4.05303,-3.18657 4.05303,-7.8173 0,-4.93425 -1.7783,-7.55835 -5.11364,-7.54578 -1.40975,0.005 -2.30579,0.37374 -3.25757,1.33941 -0.66074,0.67038 -1.02056,1.21964 -1.29584,1.97803 -0.64549,1.77831 -0.79456,5.18417 -0.32762,7.48554 0.61789,3.04534 2.26711,4.64701 4.80528,4.66673 0.33333,0.003 0.84469,-0.0454 1.13636,-0.10663 z m 17.00758,-5.98366 c -2.9375,-3.89351 -5.36648,-7.08026 -5.39773,-7.08165 -0.0873,-0.004 -0.0661,10.17751 0.0225,10.79057 0.0981,0.67888 0.36329,1.25349 0.69538,1.50678 0.26313,0.20071 1.25824,0.50314 1.65549,0.50314 0.40672,0 0.44862,0.0538 0.44862,0.57629 l 0,0.48432 -3.48831,0 -3.48831,0 0.0224,-0.50647 0.0224,-0.50647 0.57864,-0.0975 c 1.27079,-0.21408 1.82302,-0.5757 2.07593,-1.35941 0.13601,-0.42144 0.14555,-0.79397 0.16781,-6.55617 l 0.0236,-6.10934 -0.31398,-0.26877 c -0.36128,-0.30924 -0.80274,-0.42922 -1.57931,-0.42922 -0.2844,0 -0.62363,-0.0213 -0.75384,-0.0473 -0.23292,-0.0466 -0.23675,-0.0545 -0.23675,-0.49242 l 0,-0.44508 2.55682,0.003 2.55682,0.003 4.75639,6.25734 4.7564,6.25734 -0.0215,-4.99104 c -0.0211,-4.87988 -0.0251,-4.99863 -0.17987,-5.33195 -0.31988,-0.68881 -0.9836,-1.0835 -2.01298,-1.19703 l -0.4802,-0.053 -0.0225,-0.47348 -0.0225,-0.47348 3.37482,0 3.37483,0 0,0.47563 0,0.47564 -0.65743,0.0897 c -0.42289,0.0577 -0.80802,0.16501 -1.07955,0.30088 -0.37449,0.1874 -0.45007,0.26678 -0.66999,0.70365 -0.20141,0.40012 -0.26139,0.63442 -0.32002,1.25 -0.0397,0.41667 -0.073,3.69792 -0.0741,7.29167 l -0.002,6.53409 -0.47348,-0.002 -0.47349,-0.002 -5.3409,-7.07911 z m 16.22071,7.00164 c -2.75525,-0.48889 -5.3004,-2.73442 -6.32151,-5.57735 -0.63635,-1.77168 -0.6307,-4.21862 0.014,-6.09062 0.68095,-1.97709 2.27795,-3.88843 4.04561,-4.84189 1.36806,-0.73792 3.00043,-1.03219 4.65728,-0.83958 2.30466,0.26794 4.11463,1.33314 5.54641,3.26419 2.64525,3.56764 2.22966,8.64497 -0.97339,11.89221 -1.00712,1.02101 -2.16942,1.71001 -3.47069,2.0574 -0.67574,0.18039 -2.78464,0.26217 -3.49776,0.13564 z m 2.90807,-1.1311 c 0.67811,-0.211 1.11015,-0.4624 1.61922,-0.94223 1.20804,-1.13864 1.78147,-2.73297 1.98203,-5.51069 0.18246,-2.52702 -0.16879,-4.83986 -0.96988,-6.38615 -0.35751,-0.69009 -1.3166,-1.66326 -1.92732,-1.95561 -0.6682,-0.31987 -1.30004,-0.4544 -2.14344,-0.45637 -1.65185,-0.004 -2.92941,0.64225 -3.86644,1.95539 -0.88517,1.24045 -1.23464,2.62454 -1.30226,5.1577 -0.0481,1.80319 0.0521,2.95889 0.36405,4.19547 0.71228,2.82399 2.38722,4.23303 4.91829,4.13752 0.53089,-0.02 0.97182,-0.0849 1.32575,-0.19503 z m -177.46211,0.42328 0,-0.48562 0.662878,-0.044 c 0.925023,-0.0614 1.598028,-0.16851 1.725952,-0.27468 0.05972,-0.0496 0.143061,-0.21426 0.185207,-0.366 0.119899,-0.43166 0.10246,-13.40476 -0.01833,-13.6398 -0.05147,-0.10015 -0.184932,-0.2499 -0.296581,-0.33278 -0.199283,-0.14793 -0.255954,-0.15506 -2.202303,-0.27702 -0.03125,-0.002 -0.05682,-0.20811 -0.05682,-0.45811 l 0,-0.45455 3.977273,0 3.977272,0 0,0.45455 c 0,0.25 -0.0085,0.45622 -0.01894,0.45827 -0.0104,0.002 -0.491775,0.0325 -1.069684,0.0677 -1.191803,0.0726 -1.379488,0.15123 -1.545551,0.64738 -0.07562,0.22591 -0.09188,1.71578 -0.07576,6.93744 l 0.02053,6.64974 0.183767,0.19559 c 0.218306,0.23234 0.58267,0.34587 1.111937,0.34645 0.212639,0 0.596162,0.0223 0.852273,0.0491 l 0.465659,0.0487 0,0.48164 0,0.48163 -3.939394,0 -3.939394,0 0,-0.48563 z m 9.545454,-0.007 c 0,-0.27084 0.0085,-0.49424 0.01894,-0.49644 0.0104,-0.002 0.462121,-0.0307 1.003788,-0.0634 1.121929,-0.0676 1.413497,-0.17098 1.544816,-0.54768 0.05898,-0.16919 0.08397,-2.21123 0.08397,-6.86079 0,-7.20816 0.0086,-7.05943 -0.417753,-7.22153 C 36.44315,1.47909 36.006842,1.42639 35.582372,1.40333 35.1579,1.38023 34.699812,1.34463 34.564395,1.32403 34.31836,1.28673 34.318183,1.28643 34.318183,0.83561 l 0,-0.45111 3.977272,0 3.977273,0 0,0.45455 c 0,0.31162 -0.02978,0.45543 -0.0947,0.45736 -0.05208,0.002 -0.530753,0.0326 -1.063712,0.0691 -1.047662,0.0716 -1.276588,0.15421 -1.439669,0.51919 -0.06898,0.15439 -0.09132,1.81626 -0.09132,6.79528 0,6.4394 0.0035,6.59788 0.151515,6.89394 0.243339,0.48668 0.536902,0.58572 1.862361,0.62825 1.733417,0.0557 3.104215,-0.17052 3.933094,-0.64891 0.514007,-0.29666 1.104507,-0.89244 1.476732,-1.48992 0.366866,-0.58888 0.805164,-1.81945 0.952773,-2.67502 l 0.09476,-0.54925 0.516277,0 0.516276,0 -0.03318,0.20834 c -0.01826,0.11458 -0.122056,1.4697 -0.230684,3.01136 -0.108629,1.54167 -0.212816,2.87974 -0.231523,2.97349 l -0.03402,0.17045 -7.119767,0 -7.11977,0 0,-0.49242 z m 15.984848,0 c 0,-0.27084 0.0085,-0.49518 0.01894,-0.49854 0.01043,-0.003 0.471682,-0.0316 1.025035,-0.0627 0.833324,-0.0469 1.041473,-0.0828 1.212122,-0.20947 0.406328,-0.30151 0.401083,-0.1999 0.378469,-7.33186 -0.0197,-6.21197 -0.02898,-6.61346 -0.157467,-6.80951 -0.184864,-0.28208 -0.406018,-0.352 -1.258452,-0.39784 -0.399424,-0.0215 -0.837018,-0.0559 -0.972434,-0.0763 -0.246038,-0.0373 -0.246212,-0.0376 -0.246212,-0.4884 l 0,-0.45111 3.977272,0 3.977273,0 0,0.45455 c 0,0.3117 -0.02976,0.45538 -0.0947,0.45721 -0.05208,0.002 -0.550134,0.0341 -1.106778,0.0725 -1.145495,0.079 -1.323838,0.15122 -1.450785,0.58743 -0.05784,0.19873 -0.07589,2.26961 -0.05995,6.8753 0.02245,6.48799 0.02525,6.59505 0.178205,6.85606 0.25353,0.43262 0.518639,0.48872 2.306732,0.48814 1.765472,-7.6e-4 2.503581,-0.12877 3.361515,-0.58385 0.892318,-0.47331 1.661735,-1.43509 2.089455,-2.61183 0.182959,-0.50335 0.270002,-0.84525 0.501671,-1.97049 0.03204,-0.15562 0.07781,-0.17046 0.526074,-0.17046 0.429371,0 0.490982,0.0178 0.490982,0.14189 0,0.078 -0.102273,1.4801 -0.227273,3.11569 -0.125,1.63559 -0.227273,3.00356 -0.227273,3.03993 0,0.0372 -3.115416,0.0661 -7.121211,0.0661 l -7.121212,0 0,-0.49242 z m 16.060605,0 c 0,-0.41779 0.0201,-0.4927 0.132576,-0.49422 0.526543,-0.007 1.913856,-0.15275 2.087,-0.21907 0.443167,-0.16975 0.431939,0.0194 0.431939,-7.28046 0,-7.27625 0.01765,-6.98084 -0.429924,-7.19077 -0.174712,-0.0819 -0.685765,-0.13591 -2.164773,-0.22859 -0.03125,-0.002 -0.05682,-0.2081 -0.05682,-0.4581 l 0,-0.45455 3.977277,0 3.97727,0 0,0.44464 0,0.44462 -0.28409,0.047 c -0.15625,0.0258 -0.55682,0.0499 -0.89015,0.0536 -0.75726,0.008 -1.15062,0.12395 -1.35559,0.39847 -0.15946,0.21357 -0.15956,0.21802 -0.15956,6.9829 0,6.71162 10e-4,6.77096 0.15569,6.97773 0.19631,0.26296 0.55893,0.39551 1.10213,0.40288 0.23347,0.003 0.63404,0.0277 0.89015,0.0544 l 0.46566,0.0487 0,0.48163 0,0.48163 -3.93939,0 -3.939397,0 0,-0.49242 z m 9.318185,0.002 c 0,-0.47452 0.007,-0.49245 0.20833,-0.53468 1.03936,-0.21798 1.33043,-0.35386 1.71132,-0.79884 0.14809,-0.17302 0.37714,-0.54067 0.50901,-0.81701 0.13185,-0.27633 1.50582,-3.65584 3.05327,-7.51001 l 2.81352,-7.00757 0.49243,-0.0219 0.49242,-0.0219 3.24839,7.7492 c 2.38828,5.69736 3.3079,7.81232 3.4732,7.9876 0.24405,0.2588 0.57988,0.37214 1.32765,0.44808 l 0.47349,0.0481 0,0.48499 0,0.48498 -3.71212,0 -3.71213,0 0,-0.48438 0,-0.48438 0.70076,-0.0485 c 1.15364,-0.0798 1.408,-0.12539 1.6169,-0.28971 0.17184,-0.13517 0.19428,-0.19946 0.1628,-0.46657 -0.0201,-0.17039 -0.35633,-1.07685 -0.74724,-2.01435 l -0.71075,-1.70454 -3.23541,-0.0198 -3.2354,-0.0197 -0.0885,0.16542 c -0.0487,0.091 -0.27594,0.66237 -0.50499,1.26975 -0.35313,0.93639 -0.4179,1.18693 -0.42594,1.64746 -0.008,0.43891 0.0205,0.58427 0.14693,0.75758 0.21259,0.29147 0.60927,0.47469 1.22336,0.56501 0.28279,0.0416 0.62498,0.0921 0.76039,0.11218 l 0.24622,0.0365 0,0.48899 0,0.489 -3.14394,0 -3.14394,0 0,-0.49098 z m 10.83946,-6.34614 c -0.0362,-0.0937 -0.63558,-1.55114 -1.33189,-3.23864 -0.6963,-1.6875 -1.29889,-3.15341 -1.33908,-3.25757 -0.0587,-0.15209 -0.0854,-0.16701 -0.13543,-0.0758 -0.0821,0.14963 -2.65428,6.64057 -2.65428,6.69807 0,0.0244 1.24348,0.0444 2.76328,0.0444 l 2.76328,0 -0.0659,-0.17045 z m 8.09993,6.34612 c 0,-0.54257 -0.0421,-0.50291 0.64394,-0.60678 1.32399,-0.20046 1.85979,-0.718 2.08131,-2.01036 0.058,-0.33825 0.0772,-2.3 0.062,-6.3237 -0.0243,-6.40879 0.003,-6.05513 -0.48737,-6.2879 -0.14475,-0.0687 -0.45957,-0.11387 -0.79616,-0.11428 -0.3062,0 -0.73571,-0.0221 -0.95446,-0.0484 l -0.39772,-0.0478 0,-0.44399 0,-0.44399 3.06077,0 3.060758,0 0.0742,0.20833 c 0.5588,1.56998 4.5151,12.26754 4.55092,12.30533 0.0269,0.0284 1.03864,-2.7671 2.2484,-6.21212 l 2.19956,-6.26367 3.04665,-0.0198 3.04666,-0.0198 0,0.45197 c 0,0.52257 0.0635,0.49116 -1.14926,0.56845 -0.36127,0.023 -0.78694,0.0845 -0.94596,0.13658 -0.54637,0.17901 -0.51609,-0.23143 -0.53854,7.2989 -0.0199,6.67769 -0.0185,6.75171 0.13325,6.94462 0.17358,0.22068 0.67582,0.35837 1.31106,0.35943 0.2167,0 0.57298,0.0222 0.79173,0.0484 l 0.39772,0.0478 0,0.48187 0,0.48187 -3.93939,0 -3.93939,0 0,-0.49243 c 0,-0.27083 0.0256,-0.49357 0.0568,-0.49497 0.53063,-0.0238 1.67982,-0.16384 1.9095,-0.23266 0.16556,-0.0496 0.37894,-0.17312 0.47417,-0.27447 l 0.17315,-0.18428 0.0254,-6.92575 c 0.014,-3.80916 -0.003,-6.92501 -0.0379,-6.92411 -0.0348,10e-4 -1.18641,3.21397 -2.55912,7.14015 -1.37272,3.92619 -2.59639,7.41977 -2.71926,7.76352 l -0.2234,0.625 -0.43552,0 c -0.34447,0 -0.4464,-0.0277 -0.48754,-0.13258 -0.0286,-0.0729 -1.29706,-3.49053 -2.81881,-7.59469 -1.52174,-4.10417 -2.812398,-7.5644 -2.868128,-7.6894 -0.0854,-0.19163 -0.0988,0.77651 -0.0855,6.17424 0.0147,5.92057 0.026,6.43174 0.15115,6.80376 0.25744,0.76519 0.86707,1.20988 1.834308,1.33802 0.8497,0.11257 0.79247,0.0682 0.79247,0.61425 l 0,0.4864 -3.371208,0 -3.37121,0 0,-0.49098 z m 114.788198,-0.0155 0.0224,-0.50647 0.60606,-0.10113 c 1.23254,-0.20569 1.72365,-0.63951 1.9852,-1.75359 0.12465,-0.5309 0.13601,-1.06667 0.13601,-6.41264 0,-5.49375 -0.008,-5.84801 -0.1376,-6.08551 -0.18175,-0.33308 -0.52729,-0.46737 -1.20466,-0.46818 -0.30342,0 -0.73065,-0.0221 -0.9494,-0.0484 l -0.39773,-0.0478 0,-0.44484 0,-0.44484 3.08206,0.0198 3.08207,0.0198 2.30775,6.27054 c 1.26926,3.44879 2.32149,6.25679 2.33829,6.24 0.0168,-0.0168 1.01433,-2.83855 2.21674,-6.27054 l 2.18619,-6.24 3.03739,-0.0198 3.03739,-0.0198 0,0.44656 c 0,0.50915 -0.0367,0.53665 -0.7197,0.53954 -0.59714,0.003 -1.34608,0.14443 -1.55303,0.29423 -0.11227,0.0813 -0.22547,0.27303 -0.27799,0.47091 -0.12269,0.46223 -0.1385,13.11972 -0.0168,13.46875 0.0475,0.13626 0.17904,0.29004 0.30286,0.35406 0.17221,0.0891 1.49418,0.24701 2.16999,0.25928 0.0659,10e-4 0.0947,0.15163 0.0947,0.49414 l 0,0.49243 -3.93939,0 -3.93939,0 0,-0.48697 0,-0.48698 0.4356,-0.0426 c 1.62699,-0.15903 2.04665,-0.28652 2.14875,-0.65275 0.0676,-0.24237 0.0834,-13.9025 0.016,-13.83514 -0.0281,0.0281 -1.2656,3.51961 -2.74992,7.75884 l -2.69877,7.7077 -0.45084,0.0212 -0.45085,0.0212 -2.87531,-7.77248 c -1.58142,-4.27487 -2.90441,-7.79048 -2.94,-7.81247 -0.0356,-0.022 -0.0518,2.77904 -0.0359,6.23615 0.03,6.54322 0.0371,6.68969 0.35443,7.29885 0.26735,0.51319 0.82978,0.83797 1.63616,0.94481 0.8497,0.11257 0.79247,0.0682 0.79247,0.61424 l 0,0.4864 -3.33679,0 -3.3368,0 0.0224,-0.50647 z m 22.78755,0.0155 c 0,-0.47474 0.007,-0.4924 0.20834,-0.53378 1.17233,-0.2408 1.60757,-0.50374 2.0347,-1.22924 0.11646,-0.19781 1.52843,-3.63237 3.13771,-7.63237 L 240.50368,0.0442 240.99699,0.0221 241.4903,0 l 3.25053,7.74878 c 2.09993,5.00591 3.32409,7.83256 3.45833,7.98547 0.2271,0.25864 0.56561,0.37367 1.32735,0.45103 l 0.47349,0.0481 0,0.48498 0,0.48499 -3.71212,0 -3.71213,0 0,-0.48438 0,-0.48439 0.70076,-0.0485 c 1.15363,-0.0798 1.408,-0.1254 1.61689,-0.28971 0.17167,-0.13504 0.19433,-0.19973 0.16326,-0.46657 -0.0308,-0.26438 -1.07465,-2.92197 -1.39382,-3.54844 l -0.10613,-0.20833 -3.22044,0 -3.22045,0 -0.15117,0.35266 c -1.0006,2.3343 -1.1101,3.32543 -0.41754,3.77921 0.16206,0.10619 0.8562,0.2656 1.65364,0.37977 l 0.28409,0.0407 0,0.489 0,0.48899 -3.14394,0 -3.14394,0 0,-0.49098 z m 10.8879,-6.27039 c -0.3744,-0.94769 -2.74034,-6.62628 -2.77847,-6.6687 -0.0384,-0.0428 -2.13453,5.1092 -2.69778,6.63082 -0.0462,0.12475 0.11519,0.13258 2.73229,0.13258 2.19454,0 2.77347,-0.02 2.74396,-0.0947 z m -109.29698,-1.45833 0,-0.94697 2.99242,0 2.99242,0 0,0.94697 0,0.94697 -2.99242,0 -2.99242,0 0,-0.94697 z"
     style="fill-opacity:1" />
</svg>
